<svg width="68" height="35" viewBox="0 0 68 35" fill="none" xmlns="http://www.w3.org/2000/svg">
<path d="M37.196 0.910717C36.6067 1.17938 35.7453 1.88205 35.1107 2.60538C33.2293 4.71338 30.6453 5.93272 27.0867 6.40805C25.704 6.57338 25.432 6.55272 24.9333 6.24272C23.5507 5.35405 24.344 4.42405 26.7467 4.13472C27.6307 4.03138 28.764 3.84538 29.2627 3.72138C30.056 3.49405 30.1013 3.45272 29.7387 3.20472C29.172 2.79138 26.588 2.08872 25.704 2.08872C24.0493 2.08872 22.4627 3.06005 21.42 4.71338C20.0147 6.86272 18.7 12.1121 18.428 16.4727L18.292 18.7667L20.196 18.9321C22.5533 19.1181 32.232 19.1181 33.9547 18.9114C34.7707 18.8287 36.0627 18.4361 37.4453 17.8161L39.6667 16.8654L39.5307 15.4187C39.4627 14.6127 39.2587 13.0007 39.0773 11.8434C38.7373 9.46672 38.8507 8.99138 39.8027 8.78472C40.936 8.51605 41.2307 9.11538 41.6613 12.5874C41.888 14.3027 42.1373 15.7701 42.2053 15.8321C42.2733 15.9147 43.112 15.8114 44.064 15.6461C46.2173 15.2327 49.368 15.2327 52.02 15.6254C55.1707 16.1007 55.08 16.1214 54.944 14.9434C54.4227 10.2934 53.9467 6.67672 53.8333 6.40805C53.4707 5.54005 45.8547 1.67538 42.8853 0.848717C40.8453 0.27005 38.5107 0.290717 37.196 0.910717Z" fill="#00FFE5"/>
<path d="M5.57599 15.6461C4.10266 16.0594 2.44799 17.6094 1.58666 19.3247C0.838659 20.8334 -7.62939e-06 24.2641 -7.62939e-06 25.8554C-7.62939e-06 27.2194 0.475992 28.1494 1.67733 29.0794C3.53599 30.5467 6.18799 31.4767 9.56533 31.8487C11.4013 32.0347 12.104 32.0347 13.8493 31.7454C17.3173 31.2081 19.584 30.1541 22.7573 27.5707L23.8227 26.7234L21.6013 26.5787C15.7987 26.2481 9.51999 25.4627 8.93066 25.0081C8.49999 24.6774 8.61333 23.5821 9.11199 23.3134C9.38399 23.1481 10.336 23.1894 12.444 23.4787C14.076 23.6854 15.4587 23.8094 15.504 23.7681C15.5493 23.7267 15.64 22.2181 15.708 20.4407L15.844 17.1961L14.552 16.7621C12.6933 16.1214 11.0613 15.7701 8.97599 15.5221C6.79999 15.2741 6.95866 15.2741 5.57599 15.6461Z" fill="#00FFE5"/>
<path d="M44.064 17.878C38.8053 18.9734 33.592 21.9494 25.0467 28.728C23.5507 29.906 21.7147 31.2494 20.9667 31.704L19.6067 32.51L20.9667 32.386C25.1373 31.952 32.0507 30.5674 36.5387 29.2447C39.6213 28.356 41.3667 28.1287 43.6333 28.3354C46.6933 28.6247 50.2747 29.3274 51.4987 29.906C52.3147 30.2987 52.3827 31.27 51.612 31.7247C51.1587 32.014 50.8867 31.9727 48.62 31.4147C45.2653 30.5674 41.0947 30.3607 38.8733 30.9394C38.0573 31.146 37.4 31.3734 37.4 31.456C37.4 31.518 38.08 31.6834 38.9413 31.828C39.78 31.9727 41.9333 32.386 43.7467 32.7787C50.388 34.184 51.9747 34.3907 55.9867 34.3907C60.18 34.4114 61.6987 34.1427 63.988 33.0474C65.552 32.2827 66.504 31.3527 67.2973 29.782C67.796 28.8314 67.8867 28.356 67.8867 26.8887C67.8867 25.3387 67.8187 25.008 67.2747 24.1607C65.5747 21.5567 61.1547 19.5107 54.5587 18.2914C51.068 17.6507 46.104 17.4647 44.064 17.878Z" fill="#00FFE5"/>
<path d="M18.1333 22.5074C18.1333 23.3134 18.2467 24.0367 18.36 24.0987C18.496 24.1607 20.4227 24.2847 22.644 24.3467L26.7013 24.4707L28.764 22.9621C29.8973 22.1354 30.8267 21.4327 30.8267 21.4121C30.8267 21.3707 28.9453 21.3501 26.6333 21.3501C24.3213 21.3501 21.4653 21.2881 20.2867 21.2054L18.1333 21.0607V22.5074Z" fill="#00FFE5"/>
</svg>
